<?xml version="1.0" standalone="no"?>
<!DOCTYPE svg PUBLIC "-//W3C//DTD SVG 20010904//EN"
 "http://www.w3.org/TR/2001/REC-SVG-20010904/DTD/svg10.dtd">
<svg version="1.0" xmlns="http://www.w3.org/2000/svg"
 width="900.000000pt" height="900.000000pt" viewBox="0 0 900.000000 900.000000"
 preserveAspectRatio="xMidYMid meet">

<g transform="translate(0.000000,900.000000) scale(0.100000,-0.100000)"
fill="#000000" stroke="none">
<path d="M4455 7235 c-137 -24 -255 -63 -380 -125 -491 -243 -782 -760 -735
-1303 6 -67 19 -158 30 -203 21 -88 84 -244 138 -339 120 -212 316 -405 524
-515 46 -23 85 -44 87 -46 7 -6 -89 -170 -151 -261 -79 -113 -238 -297 -248
-286 -4 4 -18 51 -30 103 -28 120 -54 168 -105 197 l-40 23 -1007 -3 -1008 -2
-31 -31 c-53 -53 -51 -66 65 -538 58 -236 106 -432 106 -437 0 -4 -127 -8
-282 -9 -246 0 -285 -2 -295 -16 -24 -32 -5 -42 97 -49 l99 -7 61 -108 c100
-173 208 -311 379 -480 168 -167 315 -284 517 -411 775 -485 1855 -698 2892
-569 880 110 1649 445 2176 950 170 163 336 378 427 554 35 68 49 76 135 76
35 0 49 20 31 44 -11 14 -93 16 -705 22 l-693 7 5 21 c2 12 8 44 11 71 4 28
16 79 27 115 28 89 38 332 15 358 -9 11 -17 48 -21 102 -27 337 -102 632 -200
783 -93 144 -200 190 -468 204 -71 3 -128 8 -128 11 0 2 22 41 49 86 27 44 57
98 67 118 12 27 28 41 59 53 56 21 174 114 209 163 49 71 68 138 73 252 7 159
-22 252 -121 387 -25 35 -71 82 -102 107 -48 37 -60 54 -88 122 -71 174 -169
316 -313 455 -175 169 -388 284 -633 340 -114 27 -382 34 -495 14z m426 -70
c395 -74 730 -320 904 -665 66 -132 66 -126 -5 -133 -33 -3 -79 -14 -101 -25
l-40 -20 -28 57 c-50 98 -151 229 -250 323 -296 284 -700 424 -1089 379 -57
-7 -111 -15 -120 -18 -12 -4 -14 -3 -7 5 16 17 213 80 301 96 108 20 331 20
435 1z m-263 -160 c385 -63 761 -328 931 -656 34 -64 34 -65 16 -92 -9 -15
-20 -27 -24 -27 -4 0 -19 26 -35 58 -212 434 -719 715 -1196 662 -277 -31
-474 -117 -639 -281 l-64 -64 33 50 c19 28 76 93 128 147 84 86 101 100 170
127 85 34 205 67 297 80 97 14 283 12 383 -4z m-6 -254 c37 -12 69 -25 72 -30
3 -4 -43 -18 -102 -30 -475 -100 -822 -345 -897 -636 -43 -164 -22 -496 41
-670 11 -31 -103 83 -143 145 -20 30 -50 93 -67 140 -28 79 -31 95 -30 220 0
113 4 153 27 243 87 350 263 533 592 616 116 29 125 30 290 26 120 -2 164 -7
217 -24z m633 -444 c23 -13 52 -43 70 -71 25 -42 30 -59 30 -116 0 -56 -4 -73
-28 -109 -79 -120 -256 -80 -306 68 -28 85 0 191 62 230 44 29 120 28 172 -2z
m635 -21 l35 -13 -35 -8 c-109 -24 -190 -113 -226 -250 -16 -59 -18 -221 -3
-284 24 -107 103 -221 178 -261 l36 -19 -49 -1 c-65 0 -122 28 -179 89 -137
147 -167 405 -70 599 31 62 106 134 155 149 45 15 116 14 158 -1z m99 -106
c52 -26 106 -91 133 -159 18 -47 22 -76 22 -176 1 -142 -19 -207 -84 -274
-125 -129 -286 -26 -336 215 -27 128 4 265 77 349 58 65 120 80 188 45z m-644
-335 c30 -29 34 -89 8 -117 -24 -27 -69 -23 -98 8 -70 75 19 181 90 109z m255
-443 c-56 -139 -164 -297 -269 -395 -165 -152 -394 -263 -619 -301 -162 -27
-258 -30 -342 -8 -80 21 -244 81 -238 88 2 2 49 -6 103 -17 128 -27 341 -29
465 -5 181 34 360 112 500 217 158 119 282 288 355 482 l18 47 25 -25 25 -26
-23 -57z m145 -12 c22 -7 46 -14 53 -16 34 -10 -103 -211 -232 -340 -147 -146
-310 -249 -491 -308 -112 -37 -114 -32 -9 18 134 64 237 137 341 242 101 101
192 232 244 351 18 40 38 71 43 69 6 -3 29 -10 51 -16z m185 -335 c52 -3 108
-9 125 -13 27 -8 23 -10 -45 -26 -41 -10 -102 -29 -134 -42 -33 -13 -60 -23
-61 -21 -15 22 -55 102 -55 108 0 5 17 7 38 5 20 -3 80 -8 132 -11z m-205 -84
c19 -38 52 -116 74 -173 157 -414 203 -841 118 -1107 l-21 -66 -7 57 c-30 221
-139 407 -286 490 -29 17 -53 31 -53 33 0 1 6 18 14 36 8 19 17 61 21 94 6 56
5 59 -10 40 -9 -11 -33 -51 -55 -90 -21 -38 -53 -84 -72 -102 -71 -68 -204
-113 -335 -113 -87 0 -103 5 -103 35 0 36 -36 60 -90 60 -54 0 -80 -17 -80
-51 0 -22 -4 -24 -52 -24 -29 0 -159 5 -289 12 l-237 12 -55 -28 c-36 -17 -64
-39 -78 -62 -12 -19 -23 -34 -24 -32 -2 2 23 154 56 338 32 184 59 336 59 336
0 1 24 -7 54 -16 130 -43 216 -55 401 -55 192 0 269 11 420 60 197 65 419 207
548 353 16 17 33 32 38 32 5 0 24 -31 44 -69z m546 -43 c108 -146 182 -412
214 -774 l7 -71 -44 -6 c-23 -4 -94 -9 -156 -13 -74 -4 -124 -12 -146 -23
l-32 -17 -38 164 c-43 191 -108 397 -178 570 -28 68 -46 128 -42 132 32 30
229 78 321 79 63 1 63 1 94 -41z m-2167 -528 c-13 -74 -37 -210 -55 -302 l-31
-167 -34 -11 c-141 -47 -178 -224 -68 -325 32 -30 34 -35 27 -66 -6 -23 -16
-35 -29 -37 -19 -3 -25 16 -71 195 -28 109 -61 240 -74 291 l-22 92 76 78 c95
96 171 191 244 304 31 48 58 87 59 85 1 -1 -9 -63 -22 -137z m-539 -8 c27 -17
33 -31 59 -135 27 -106 28 -125 22 -222 -20 -315 -114 -554 -283 -720 -180
-177 -425 -284 -818 -359 -58 -11 -158 -16 -368 -17 -158 -1 -289 0 -291 2 -2
2 -16 56 -31 119 -15 63 -92 378 -171 698 -79 321 -144 591 -144 600 0 8 7 24
17 34 15 17 59 18 997 18 934 0 982 -1 1011 -18z m1998 -273 c61 -32 150 -128
186 -201 42 -85 69 -203 74 -317 l4 -95 -40 -44 c-128 -138 -404 -209 -711
-183 -177 15 -252 46 -291 121 -22 43 -38 252 -26 347 23 187 69 226 283 243
211 16 322 46 410 110 29 22 57 39 61 40 4 0 27 -10 50 -21z m502 -237 c-2 -2
-12 1 -22 6 -16 9 -18 20 -14 98 l4 89 17 -95 c10 -52 17 -96 15 -98z m-1679
41 c-4 -65 -9 -152 -11 -193 l-5 -75 70 -48 c68 -46 70 -49 70 -88 0 -35 -2
-40 -15 -29 -10 9 -57 10 -185 4 l-170 -7 1 109 c1 185 14 336 33 372 27 51
69 72 149 72 l69 0 -6 -117z m288 101 l148 -6 -40 -42 c-46 -47 -64 -81 -81
-151 -7 -27 -18 -57 -25 -65 -41 -48 -46 -137 -11 -206 36 -71 35 -74 -40 -74
l-65 0 0 55 0 55 -69 46 -69 45 4 62 c2 34 7 115 10 180 l6 118 42 -5 c22 -3
108 -8 190 -12z m1851 -36 c10 -42 -13 -242 -35 -300 -25 -68 -56 -101 -112
-117 -42 -13 -43 -13 -70 20 -47 56 -70 133 -72 231 -1 87 -8 109 -20 66 -11
-44 -5 -222 9 -263 8 -21 12 -41 10 -43 -2 -3 -18 9 -34 27 -40 43 -59 168
-42 285 6 44 14 83 19 87 7 7 192 25 289 28 47 1 53 -1 58 -21z m-2445 -165
c0 -27 -3 -85 -7 -130 l-6 -83 -29 0 c-72 0 -128 58 -128 133 0 44 4 53 39 88
34 34 45 39 85 39 l46 0 0 -47z m1980 -55 c24 -53 25 -106 3 -152 -12 -26 -29
-40 -66 -55 -28 -12 -52 -20 -53 -18 -2 2 7 30 20 62 13 33 29 87 36 120 7 33
14 66 16 73 7 24 25 11 44 -30z m-1992 -245 c-2 -22 -9 -29 -30 -31 -20 -2
-28 1 -28 12 0 30 13 46 37 46 21 0 24 -4 21 -27z m2042 -8 l0 -35 -57 0 -58
0 40 19 c22 10 46 25 54 34 19 24 21 22 21 -18z m163 -18 c45 -10 90 -6 164
18 18 6 21 4 16 -14 -5 -20 -12 -21 -139 -21 -130 0 -134 1 -134 21 0 18 4 20
23 14 12 -4 43 -12 70 -18z m-1907 -72 c-10 -8 -23 -12 -29 -8 -6 3 -7 1 -4
-4 9 -14 -19 -37 -34 -27 -7 4 -9 3 -6 -3 9 -15 -119 -104 -140 -97 -13 4 -14
3 -5 -3 10 -8 10 -12 -2 -22 -8 -7 -21 -9 -28 -5 -7 4 -10 4 -6 -1 4 -4 3 -14
-3 -22 -14 -16 -33 -18 -23 -1 4 7 3 8 -5 4 -6 -4 -9 -11 -6 -15 7 -12 -85
-75 -95 -65 -5 5 -10 20 -12 34 -2 14 -7 30 -11 37 -6 10 -46 186 -47 206 0 4
107 7 238 7 208 -1 235 -2 218 -15z m58 -38 c-3 -8 -28 -31 -57 -53 -29 -21
-54 -41 -57 -44 -28 -29 -93 -70 -102 -64 -6 4 -8 3 -4 -4 9 -14 -80 -86 -95
-76 -8 4 -9 3 -5 -5 4 -7 -2 -20 -16 -31 -26 -22 -43 -26 -32 -7 4 6 4 9 0 5
-4 -3 -6 -8 -4 -11 4 -7 -33 -47 -44 -47 -4 0 -8 8 -8 18 0 21 136 126 151
117 5 -4 8 -2 7 4 -2 5 29 33 67 61 39 27 83 60 98 73 29 22 100 75 104 76 1
1 0 -5 -3 -12z m357 -93 c7 -8 25 -22 39 -29 20 -11 29 -24 34 -54 9 -56 42
-130 62 -138 22 -8 40 17 61 86 l18 54 110 -6 c189 -11 415 20 538 73 31 13
56 17 95 13 28 -3 52 -8 52 -12 -1 -13 -118 -412 -123 -417 -3 -3 -103 2 -224
11 -258 20 -792 29 -1021 18 -89 -4 -161 -5 -160 -1 2 4 104 99 228 212 232
210 259 228 291 190z m1835 -10 l179 -7 146 -196 145 -196 -665 -3 c-365 -1
-666 -1 -667 1 -4 4 104 386 112 399 6 10 500 11 750 2z m-4877 -64 l-1 -25
-10 28 c-6 18 -17 27 -31 27 -21 0 -21 1 3 13 28 15 39 3 39 -43z m5584 -3
l22 -4 -22 -8 c-12 -4 -25 -17 -29 -28 l-7 -22 -8 23 c-5 12 -15 22 -24 22
-22 0 -18 17 5 23 12 3 20 14 21 29 1 22 1 22 10 -4 6 -15 20 -29 32 -31z
m-1949 -409 c254 -16 333 -19 347 -10 13 8 89 12 243 12 l224 0 61 -79 c33
-44 61 -83 61 -88 0 -8 -1410 -12 -1410 -3 0 3 17 47 37 97 38 92 38 93 73 93
19 0 183 -10 364 -22z m-2257 -89 c15 0 14 -2 -4 -11 -12 -6 -24 -20 -26 -32
-4 -21 -4 -21 -6 1 0 13 -10 24 -23 29 l-23 7 23 8 c12 5 22 16 23 26 0 14 2
13 9 -4 5 -13 17 -23 27 -24z m683 10 c0 -12 7 -19 20 -19 11 0 20 -4 20 -10
0 -5 -9 -10 -20 -10 -13 0 -20 -7 -20 -19 0 -11 -4 -23 -10 -26 -5 -3 -10 4
-10 15 0 13 -8 24 -20 27 -11 3 -20 9 -20 13 0 4 9 10 20 13 12 3 20 14 20 27
0 11 5 18 10 15 6 -3 10 -15 10 -26z m2892 -106 c6 -7 20 -14 32 -14 20 -1 20
-2 1 -6 -30 -8 -45 -23 -45 -47 -1 -16 -4 -14 -15 12 -10 22 -21 32 -37 33
-20 1 -21 2 -3 6 30 8 45 23 46 47 1 20 2 20 6 1 3 -11 10 -26 15 -32z m-4172
-66 c11 -4 10 -6 -4 -6 -10 -1 -25 -9 -32 -18 -13 -17 -13 -17 -14 0 0 11 -8
17 -22 18 l-23 0 23 9 c12 5 22 17 22 27 0 16 2 16 18 -3 9 -12 24 -24 32 -27z
m1974 -8 c20 -2 20 -2 -1 -6 -12 -2 -25 -14 -29 -26 l-7 -22 -8 23 c-5 12 -16
22 -26 23 -14 0 -13 2 5 9 12 5 22 17 23 27 0 15 2 14 11 -4 6 -13 20 -24 32
-24z m1043 -180 c14 0 13 -2 -4 -9 -13 -5 -23 -17 -24 -27 0 -14 -2 -13 -9 5
-5 12 -17 22 -27 23 -14 0 -13 2 5 9 12 5 22 17 23 27 0 14 2 13 9 -4 5 -13
17 -23 27 -24z m573 -10 l25 -6 -27 -11 c-19 -8 -28 -19 -29 -34 -1 -22 -1
-21 -10 3 -6 15 -20 30 -32 34 l-22 8 22 4 c15 3 26 14 30 31 l7 27 6 -25 c3
-15 15 -27 30 -31z m-2864 -75 c14 5 15 4 5 -8 -8 -9 -10 -24 -5 -38 6 -21 5
-22 -11 -8 -10 8 -28 14 -39 12 -16 -2 -18 -1 -7 6 9 7 11 19 7 38 -7 28 -7
28 13 10 12 -11 27 -16 37 -12z m735 -114 c10 0 19 -4 19 -10 0 -5 -9 -10 -19
-10 -12 0 -21 -8 -24 -22 l-4 -23 -8 22 c-4 11 -17 24 -28 28 l-22 8 21 4 c12
2 25 14 29 26 l8 22 4 -22 c3 -15 12 -23 24 -23z m896 -21 c15 0 14 -2 -4 -11
-13 -6 -23 -18 -24 -27 0 -10 -3 -8 -9 7 -5 12 -17 22 -27 23 -14 0 -13 2 5 9
12 5 22 17 23 27 0 14 2 13 9 -4 5 -13 17 -23 27 -24z"/>
<path d="M2198 4333 c244 -2 640 -2 880 0 240 1 41 2 -443 2 -484 0 -681 -1
-437 -2z"/>
<path d="M2858 4050 c-31 -5 -75 -18 -97 -29 -22 -12 -46 -18 -54 -15 -8 3
-18 1 -22 -5 -4 -7 1 -9 12 -5 16 5 16 4 -1 -10 -10 -8 -24 -13 -30 -9 -6 3
-8 3 -4 -2 4 -4 -6 -25 -22 -45 -31 -39 -30 -39 -162 -52 -9 -1 -15 -4 -13 -6
5 -5 -40 -42 -51 -42 -4 0 1 7 12 16 18 14 18 15 -4 4 -12 -6 -20 -15 -17 -20
3 -4 -11 -27 -30 -50 -19 -23 -35 -46 -35 -52 0 -5 -4 -7 -9 -3 -10 6 -7 -27
3 -44 4 -5 38 -15 76 -21 56 -9 70 -15 70 -29 0 -10 9 -26 20 -36 15 -14 17
-21 9 -31 -6 -8 -15 -12 -19 -9 -4 2 -5 -7 -2 -20 5 -27 38 -35 60 -13 9 9 16
8 30 -5 10 -9 27 -17 38 -17 17 0 22 -12 35 -72 14 -73 14 -73 46 -72 25 2 30
-2 26 -15 -4 -13 -3 -14 5 -1 6 8 9 17 6 22 -6 10 32 29 41 20 5 -4 5 -2 2 4
-8 14 46 67 58 57 4 -5 6 -3 2 2 -3 6 3 28 13 50 11 22 19 62 20 90 0 45 4 54
37 85 20 19 40 34 45 33 4 -2 7 0 6 5 -1 4 6 22 16 41 10 18 24 54 32 80 14
48 19 188 6 208 -10 16 -88 23 -154 13z m40 -124 l66 -64 -19 -47 c-10 -27
-33 -65 -53 -87 -38 -42 -137 -111 -221 -153 -45 -22 -56 -24 -67 -13 -11 11
-2 26 55 88 62 68 77 100 48 100 -6 0 -43 -32 -83 -71 -60 -59 -72 -68 -83
-55 -18 22 72 196 141 271 45 50 111 94 142 95 4 0 38 -29 74 -64z"/>
<path d="M2792 3925 c-73 -31 -46 -145 35 -145 46 0 77 30 77 73 0 63 -52 97
-112 72z m63 -70 c0 -27 -3 -30 -30 -30 -21 0 -31 5 -33 18 -6 33 6 49 35 45
24 -3 28 -8 28 -33z"/>
<path d="M2595 3939 c-3 -5 1 -6 9 -3 9 3 16 2 16 -4 0 -6 -6 -13 -12 -15 -10
-4 -10 -6 -1 -6 7 -1 17 7 22 17 7 14 6 18 -10 19 -10 1 -21 -2 -24 -8z"/>
<path d="M4114 3338 l-19 -23 23 19 c21 18 27 26 19 26 -2 0 -12 -10 -23 -22z"/>
<path d="M3989 3249 l-24 -20 27 16 c15 9 33 13 39 9 8 -4 9 -3 5 4 -10 17
-20 15 -47 -9z"/>
<path d="M5034 3082 c3 -5 79 -12 168 -15 90 -4 213 -10 273 -13 61 -4 108 -4
105 -1 -12 13 -554 42 -546 29z"/>
<path d="M4705 3000 c177 -11 766 -33 771 -27 8 8 -370 27 -631 31 -211 4
-241 3 -140 -4z"/>
<path d="M6035 3231 c39 -5 198 -11 355 -14 184 -3 246 -2 175 3 -154 11 -617
21 -530 11z"/>
<path d="M6140 3160 c355 -14 590 -18 515 -10 -38 4 -216 10 -395 13 -261 4
-284 4 -120 -3z"/>
<path d="M6080 3080 c239 -11 719 -20 590 -10 -58 4 -251 10 -430 13 -231 4
-277 3 -160 -3z"/>
<path d="M6050 2970 c58 -4 242 -8 410 -7 225 0 275 2 190 7 -63 4 -248 7
-410 7 -215 0 -267 -2 -190 -7z"/>
<path d="M5205 2731 c-36 -5 82 -8 290 -9 193 -1 402 -4 465 -6 92 -4 102 -3
50 4 -89 11 -731 20 -805 11z"/>
</g>
</svg>
